<svg width="354" height="77" viewBox="0 0 354 77" fill="none" xmlns="http://www.w3.org/2000/svg">
<path d="M207.248 25.391C208.275 23.8506 210.123 24.1587 209.302 37.7139C214.95 29.1563 226.554 16.5595 227.786 34.6332C227.615 36.1735 229.84 37.7139 240.109 31.5524" stroke="white" stroke-width="4" stroke-linecap="round" stroke-linejoin="round"/>
<path d="M251.762 41.9406C252.111 40.8927 251.545 39.76 250.497 39.4107C249.449 39.0614 248.317 39.6278 247.967 40.6757L251.762 41.9406ZM263.215 31.039L265.209 31.1867L265.214 31.1276L265.214 31.0684L263.215 31.039ZM258.79 3.08302C258.38 4.10859 258.879 5.27253 259.905 5.68275C260.93 6.09298 262.094 5.59415 262.504 4.56858L258.79 3.08302ZM292.995 20.3102C291.891 20.3102 290.995 21.2056 290.995 22.3102C290.995 23.4147 291.891 24.3102 292.995 24.3102V20.3102ZM289.052 49.8932C288.689 50.9365 289.241 52.0764 290.284 52.4393C291.328 52.8021 292.467 52.2506 292.83 51.2073L289.052 49.8932ZM307.885 22.3102L308.144 20.327C307.461 20.2378 306.78 20.5068 306.342 21.0388L307.885 22.3102ZM308.912 36.687L309.305 38.6481L308.912 36.687ZM308.156 21.8689C307.061 21.7196 306.053 22.4859 305.904 23.5803C305.754 24.6748 306.521 25.683 307.615 25.8322L308.156 21.8689ZM322.778 25.5655C323.725 24.9972 324.032 23.7687 323.464 22.8216C322.895 21.8744 321.667 21.5673 320.72 22.1356L322.778 25.5655ZM247.967 40.6757C247.585 41.8232 247.919 42.9299 248.654 43.7003C249.293 44.3696 250.151 44.7194 250.914 44.8994C252.482 45.2688 254.487 45.1254 256.456 44.4061C260.553 42.9091 264.639 38.8794 265.209 31.1867L261.22 30.8912C260.763 37.0619 257.661 39.7071 255.083 40.649C253.714 41.1491 252.511 41.1661 251.832 41.0061C251.472 40.9213 251.448 40.8339 251.549 40.9396C251.746 41.1464 251.888 41.5632 251.762 41.9406L247.967 40.6757ZM265.214 31.0684C265.3 25.2326 265.275 16.8324 264.916 10.6416C264.74 7.60697 264.475 4.90009 264.042 3.3149C263.932 2.91342 263.779 2.45732 263.548 2.05496C263.378 1.75856 262.825 0.888668 261.696 0.761348C260.49 0.625243 259.753 1.44282 259.506 1.75954C259.198 2.15582 258.969 2.63539 258.79 3.08302L262.504 4.56858C262.633 4.24602 262.696 4.17336 262.662 4.21681C262.642 4.24237 262.537 4.37527 262.327 4.50369C262.094 4.64621 261.716 4.78888 261.248 4.73614C260.794 4.68494 260.481 4.47464 260.316 4.32718C260.161 4.18849 260.091 4.06763 260.08 4.04875C260.062 4.01694 260.108 4.09369 260.183 4.36879C260.489 5.48995 260.744 7.78927 260.923 10.8733C261.274 16.9199 261.3 25.2071 261.215 31.0096L265.214 31.0684ZM292.995 24.3102C292.678 24.3102 292.447 24.2307 292.362 24.1991C292.252 24.1585 292.176 24.1167 292.135 24.0932C292.054 24.0456 292.024 24.0143 292.037 24.0269C292.06 24.0475 292.172 24.1598 292.324 24.4176C292.624 24.9269 293.053 25.9568 293.253 27.7906C293.657 31.4818 293.112 38.2204 289.052 49.8932L292.83 51.2073C296.985 39.2612 297.724 31.8797 297.23 27.3557C296.981 25.0817 296.415 23.4802 295.769 22.385C295.447 21.8405 295.098 21.4072 294.745 21.0829C294.571 20.9229 294.375 20.7693 294.158 20.6425C294.035 20.5701 293.591 20.3102 292.995 20.3102V24.3102ZM306.342 21.0388C303.846 24.0693 301.27 28.5223 300.769 32.1795C300.518 34.0108 300.727 36.207 302.462 37.659C304.128 39.0539 306.559 39.1972 309.305 38.6481L308.52 34.7258C306.131 35.2036 305.267 34.7907 305.029 34.5917C304.86 34.4499 304.555 34.0146 304.732 32.7224C305.087 30.1325 307.133 26.3703 309.429 23.5816L306.342 21.0388ZM309.305 38.6481C313.564 37.7963 316.681 36.49 318.653 34.7832C320.719 32.9953 321.578 30.6838 320.915 28.3065C320.306 26.1235 318.529 24.3296 316.37 23.0306C314.165 21.7039 311.326 20.742 308.144 20.327L307.627 24.2934C310.35 24.6486 312.645 25.4581 314.307 26.458C316.015 27.4855 316.837 28.5735 317.062 29.3813C317.234 29.9949 317.162 30.7833 316.036 31.7585C314.815 32.8148 312.476 33.9345 308.52 34.7258L309.305 38.6481ZM307.615 25.8322C309.546 26.0955 312.569 26.4115 315.393 26.5041C316.803 26.5504 318.208 26.5427 319.423 26.4348C320.537 26.3358 321.837 26.1301 322.778 25.5655L320.72 22.1356C320.729 22.1302 320.701 22.1479 320.617 22.178C320.536 22.2073 320.422 22.2413 320.27 22.2761C319.964 22.3465 319.563 22.4066 319.069 22.4505C318.08 22.5383 316.854 22.5499 315.524 22.5063C312.872 22.4192 309.99 22.1191 308.156 21.8689L307.615 25.8322Z" fill="white"/>
<path d="M275.949 23.8505C279.715 24.364 287.759 25.0828 289.813 23.8505M275.949 22.3102C271.157 28.1294 264.653 39.1515 276.976 36.687C292.38 33.6062 287.245 25.3909 275.949 22.3102Z" stroke="white" stroke-width="4" stroke-linecap="round" stroke-linejoin="round"/>
<path d="M11.6211 39.2543C10.5942 38.3985 9.15651 31.4497 11.6211 10.5007" stroke="white" stroke-width="4" stroke-linecap="round"/>
<path d="M7 7.41992C25.4844 13.0679 52.6976 28.3689 13.6749 44.3888" stroke="white" stroke-width="4" stroke-linecap="round"/>
<path d="M40.3747 25.3909C40.2035 30.0121 39.9639 39.357 40.3747 39.7677C40.8881 40.2812 42.9419 25.9044 57.3187 27.4448M77.3435 28.9851H105.584M84.0184 9.98726C83.505 20.4275 82.9915 41.2054 85.0454 40.7946M100.962 41.8215C101.476 41.3081 102.503 5.36615 100.449 7.41998M111.745 32.5793C116.88 31.2101 126.019 26.9313 121.501 20.7698C115.853 13.068 99.4221 47.4695 126.122 35.66" stroke="white" stroke-width="4" stroke-linecap="round" stroke-linejoin="round"/>
<path d="M129.203 24.8774L128.176 37.2004C130.401 33.0927 137.007 25.0828 145.633 25.9044" stroke="white" stroke-width="4" stroke-linecap="round" stroke-linejoin="round"/>
<path d="M149.227 26.931C150.597 25.9041 153.027 26.7256 151.795 38.227C157.1 31.2098 168.02 20.4614 169.252 33.6059C169.594 35.8309 172.333 39.0485 180.548 34.1193M199.033 23.8502C190.304 16.1485 168.225 54.1444 196.979 31.0386C196.979 35.1465 198.108 41.205 208.788 34.6328" stroke="white" stroke-width="4" stroke-linecap="round" stroke-linejoin="round"/>
<path d="M340.661 21.3057C331.932 13.6039 309.853 51.5999 338.607 28.494C338.607 32.602 339.736 38.6605 350.416 32.0882" stroke="white" stroke-width="4" stroke-linecap="round" stroke-linejoin="round"/>
<path d="M292.482 9.47375V10.5007" stroke="white" stroke-width="5" stroke-linecap="round"/>
<path d="M98.2528 72.112C97.2181 72.112 96.2794 71.872 95.4368 71.392C94.5941 70.9013 93.9274 70.224 93.4368 69.36C92.9568 68.4853 92.7168 67.4987 92.7168 66.4C92.7168 65.3013 92.9568 64.32 93.4368 63.456C93.9274 62.5813 94.5941 61.904 95.4368 61.424C96.2794 60.9333 97.2181 60.688 98.2528 60.688C99.2981 60.688 100.242 60.9333 101.085 61.424C101.927 61.904 102.589 62.5813 103.069 63.456C103.549 64.32 103.789 65.3013 103.789 66.4C103.789 67.4987 103.549 68.4853 103.069 69.36C102.589 70.224 101.927 70.9013 101.085 71.392C100.242 71.872 99.2981 72.112 98.2528 72.112ZM98.2528 71.136C99.0848 71.136 99.8314 70.944 100.493 70.56C101.154 70.176 101.677 69.6267 102.061 68.912C102.445 68.1867 102.637 67.3493 102.637 66.4C102.637 65.4507 102.445 64.6187 102.061 63.904C101.677 63.1893 101.154 62.64 100.493 62.256C99.8314 61.872 99.0848 61.68 98.2528 61.68C97.4208 61.68 96.6741 61.872 96.0128 62.256C95.3514 62.64 94.8288 63.1893 94.4448 63.904C94.0608 64.6187 93.8688 65.4507 93.8688 66.4C93.8688 67.3493 94.0608 68.1867 94.4448 68.912C94.8288 69.6267 95.3514 70.176 96.0128 70.56C96.6741 70.944 97.4208 71.136 98.2528 71.136ZM105.486 67.616C105.486 66.72 105.667 65.936 106.03 65.264C106.393 64.5813 106.889 64.0587 107.518 63.696C108.158 63.3227 108.878 63.136 109.678 63.136C110.446 63.136 111.139 63.3227 111.758 63.696C112.377 64.0693 112.83 64.5547 113.118 65.152V60.16H114.238V72H113.118V70.048C112.851 70.656 112.414 71.1573 111.806 71.552C111.198 71.936 110.483 72.128 109.662 72.128C108.862 72.128 108.142 71.9413 107.502 71.568C106.873 71.1947 106.377 70.6667 106.014 69.984C105.662 69.3013 105.486 68.512 105.486 67.616ZM113.118 67.632C113.118 66.928 112.974 66.3093 112.686 65.776C112.398 65.2427 112.003 64.832 111.502 64.544C111.011 64.256 110.467 64.112 109.87 64.112C109.251 64.112 108.697 64.2507 108.206 64.528C107.715 64.8053 107.326 65.2107 107.038 65.744C106.761 66.2667 106.622 66.8907 106.622 67.616C106.622 68.3307 106.761 68.96 107.038 69.504C107.326 70.0373 107.715 70.448 108.206 70.736C108.697 71.0133 109.251 71.152 109.87 71.152C110.467 71.152 111.011 71.008 111.502 70.72C112.003 70.432 112.398 70.0213 112.686 69.488C112.974 68.9547 113.118 68.336 113.118 67.632ZM120.779 72.128C119.958 72.128 119.216 71.9467 118.555 71.584C117.904 71.2107 117.387 70.688 117.003 70.016C116.63 69.3333 116.443 68.5387 116.443 67.632C116.443 66.7253 116.635 65.936 117.019 65.264C117.403 64.5813 117.926 64.0587 118.587 63.696C119.248 63.3227 119.99 63.136 120.811 63.136C121.632 63.136 122.374 63.3227 123.035 63.696C123.707 64.0587 124.23 64.5813 124.603 65.264C124.987 65.936 125.179 66.7253 125.179 67.632C125.179 68.528 124.987 69.3173 124.603 70C124.219 70.6827 123.691 71.2107 123.019 71.584C122.347 71.9467 121.6 72.128 120.779 72.128ZM120.779 71.152C121.355 71.152 121.888 71.024 122.379 70.768C122.87 70.5013 123.264 70.1067 123.563 69.584C123.872 69.0507 124.027 68.4 124.027 67.632C124.027 66.864 123.878 66.2187 123.579 65.696C123.28 65.1627 122.886 64.768 122.395 64.512C121.904 64.2453 121.371 64.112 120.795 64.112C120.219 64.112 119.686 64.2453 119.195 64.512C118.704 64.768 118.31 65.1627 118.011 65.696C117.723 66.2187 117.579 66.864 117.579 67.632C117.579 68.4 117.723 69.0507 118.011 69.584C118.31 70.1067 118.699 70.5013 119.179 70.768C119.67 71.024 120.203 71.152 120.779 71.152ZM131.477 63.104C132.522 63.104 133.375 63.4293 134.037 64.08C134.698 64.72 135.029 65.6533 135.029 66.88V72H133.925V67.008C133.925 66.0587 133.685 65.3333 133.205 64.832C132.735 64.3307 132.09 64.08 131.269 64.08C130.426 64.08 129.754 64.3467 129.253 64.88C128.751 65.4133 128.501 66.1973 128.501 67.232V72H127.381V63.264H128.501V64.752C128.778 64.2187 129.178 63.8133 129.701 63.536C130.223 63.248 130.815 63.104 131.477 63.104ZM139.122 64.208V69.632C139.122 70.1653 139.223 70.5333 139.426 70.736C139.628 70.9387 139.986 71.04 140.498 71.04H141.522V72H140.322C139.532 72 138.946 71.8187 138.562 71.456C138.178 71.0827 137.986 70.4747 137.986 69.632V64.208H136.77V63.264H137.986V61.072H139.122V63.264H141.522V64.208H139.122ZM147.353 72.128C146.531 72.128 145.79 71.9467 145.129 71.584C144.478 71.2107 143.961 70.688 143.577 70.016C143.203 69.3333 143.017 68.5387 143.017 67.632C143.017 66.7253 143.209 65.936 143.593 65.264C143.977 64.5813 144.499 64.0587 145.161 63.696C145.822 63.3227 146.563 63.136 147.385 63.136C148.206 63.136 148.947 63.3227 149.609 63.696C150.281 64.0587 150.803 64.5813 151.177 65.264C151.561 65.936 151.753 66.7253 151.753 67.632C151.753 68.528 151.561 69.3173 151.177 70C150.793 70.6827 150.265 71.2107 149.593 71.584C148.921 71.9467 148.174 72.128 147.353 72.128ZM147.353 71.152C147.929 71.152 148.462 71.024 148.953 70.768C149.443 70.5013 149.838 70.1067 150.137 69.584C150.446 69.0507 150.601 68.4 150.601 67.632C150.601 66.864 150.451 66.2187 150.153 65.696C149.854 65.1627 149.459 64.768 148.969 64.512C148.478 64.2453 147.945 64.112 147.369 64.112C146.793 64.112 146.259 64.2453 145.769 64.512C145.278 64.768 144.883 65.1627 144.585 65.696C144.297 66.2187 144.153 66.864 144.153 67.632C144.153 68.4 144.297 69.0507 144.585 69.584C144.883 70.1067 145.273 70.5013 145.753 70.768C146.243 71.024 146.777 71.152 147.353 71.152ZM155.074 60.16V72H153.954V60.16H155.074ZM161.595 72.128C160.773 72.128 160.032 71.9467 159.371 71.584C158.72 71.2107 158.203 70.688 157.819 70.016C157.445 69.3333 157.259 68.5387 157.259 67.632C157.259 66.7253 157.451 65.936 157.835 65.264C158.219 64.5813 158.741 64.0587 159.403 63.696C160.064 63.3227 160.805 63.136 161.627 63.136C162.448 63.136 163.189 63.3227 163.851 63.696C164.523 64.0587 165.045 64.5813 165.419 65.264C165.803 65.936 165.995 66.7253 165.995 67.632C165.995 68.528 165.803 69.3173 165.419 70C165.035 70.6827 164.507 71.2107 163.835 71.584C163.163 71.9467 162.416 72.128 161.595 72.128ZM161.595 71.152C162.171 71.152 162.704 71.024 163.195 70.768C163.685 70.5013 164.08 70.1067 164.379 69.584C164.688 69.0507 164.843 68.4 164.843 67.632C164.843 66.864 164.693 66.2187 164.395 65.696C164.096 65.1627 163.701 64.768 163.211 64.512C162.72 64.2453 162.187 64.112 161.611 64.112C161.035 64.112 160.501 64.2453 160.011 64.512C159.52 64.768 159.125 65.1627 158.827 65.696C158.539 66.2187 158.395 66.864 158.395 67.632C158.395 68.4 158.539 69.0507 158.827 69.584C159.125 70.1067 159.515 70.5013 159.995 70.768C160.485 71.024 161.019 71.152 161.595 71.152ZM171.86 63.136C172.682 63.136 173.396 63.328 174.004 63.712C174.612 64.096 175.05 64.5813 175.316 65.168V63.264H176.436V72.224C176.436 73.024 176.26 73.7333 175.908 74.352C175.567 74.9707 175.087 75.4453 174.468 75.776C173.85 76.1173 173.146 76.288 172.356 76.288C171.236 76.288 170.303 76.0213 169.556 75.488C168.82 74.9547 168.362 74.2293 168.18 73.312H169.284C169.476 73.92 169.839 74.4053 170.372 74.768C170.916 75.1307 171.578 75.312 172.356 75.312C172.922 75.312 173.428 75.1893 173.876 74.944C174.324 74.7093 174.676 74.3573 174.932 73.888C175.188 73.4187 175.316 72.864 175.316 72.224V70.064C175.039 70.6613 174.596 71.1573 173.988 71.552C173.391 71.936 172.682 72.128 171.86 72.128C171.06 72.128 170.34 71.9413 169.7 71.568C169.071 71.1947 168.575 70.6667 168.212 69.984C167.86 69.3013 167.684 68.512 167.684 67.616C167.684 66.72 167.86 65.936 168.212 65.264C168.575 64.5813 169.071 64.0587 169.7 63.696C170.34 63.3227 171.06 63.136 171.86 63.136ZM175.316 67.632C175.316 66.928 175.172 66.3093 174.884 65.776C174.596 65.2427 174.202 64.832 173.7 64.544C173.21 64.256 172.666 64.112 172.068 64.112C171.45 64.112 170.895 64.2507 170.404 64.528C169.914 64.8053 169.524 65.2107 169.236 65.744C168.959 66.2667 168.82 66.8907 168.82 67.616C168.82 68.3307 168.959 68.96 169.236 69.504C169.524 70.0373 169.914 70.448 170.404 70.736C170.895 71.0133 171.45 71.152 172.068 71.152C172.666 71.152 173.21 71.008 173.7 70.72C174.202 70.432 174.596 70.0213 174.884 69.488C175.172 68.9547 175.316 68.336 175.316 67.632ZM180.273 63.264V72H179.153V63.264H180.273ZM181.185 60.688L177.905 62.592V61.728L181.185 59.68V60.688ZM182.457 67.616C182.457 66.72 182.633 65.936 182.985 65.264C183.348 64.5813 183.844 64.0587 184.473 63.696C185.113 63.3227 185.833 63.136 186.633 63.136C187.465 63.136 188.18 63.328 188.777 63.712C189.385 64.096 189.823 64.5867 190.089 65.184V63.264H191.209V72H190.089V70.064C189.812 70.6613 189.369 71.1573 188.761 71.552C188.164 71.936 187.449 72.128 186.617 72.128C185.828 72.128 185.113 71.9413 184.473 71.568C183.844 71.1947 183.348 70.6667 182.985 69.984C182.633 69.3013 182.457 68.512 182.457 67.616ZM190.089 67.632C190.089 66.928 189.945 66.3093 189.657 65.776C189.369 65.2427 188.975 64.832 188.473 64.544C187.983 64.256 187.439 64.112 186.841 64.112C186.223 64.112 185.668 64.2507 185.177 64.528C184.687 64.8053 184.297 65.2107 184.009 65.744C183.732 66.2667 183.593 66.8907 183.593 67.616C183.593 68.3307 183.732 68.96 184.009 69.504C184.297 70.0373 184.687 70.448 185.177 70.736C185.668 71.0133 186.223 71.152 186.841 71.152C187.439 71.152 187.983 71.008 188.473 70.72C188.975 70.432 189.369 70.0213 189.657 69.488C189.945 68.9547 190.089 68.336 190.089 67.632ZM206.381 67.184C206.381 67.568 206.37 67.8613 206.349 68.064H199.101C199.133 68.7253 199.293 69.2907 199.581 69.76C199.869 70.2293 200.248 70.5867 200.717 70.832C201.186 71.0667 201.698 71.184 202.253 71.184C202.978 71.184 203.586 71.008 204.077 70.656C204.578 70.304 204.909 69.8293 205.069 69.232H206.253C206.04 70.0853 205.581 70.784 204.877 71.328C204.184 71.8613 203.309 72.128 202.253 72.128C201.432 72.128 200.696 71.9467 200.045 71.584C199.394 71.2107 198.882 70.688 198.509 70.016C198.146 69.3333 197.965 68.5387 197.965 67.632C197.965 66.7253 198.146 65.9307 198.509 65.248C198.872 64.5653 199.378 64.0427 200.029 63.68C200.68 63.3173 201.421 63.136 202.253 63.136C203.085 63.136 203.81 63.3173 204.429 63.68C205.058 64.0427 205.538 64.5333 205.869 65.152C206.21 65.76 206.381 66.4373 206.381 67.184ZM205.245 67.152C205.256 66.5013 205.122 65.9467 204.845 65.488C204.578 65.0293 204.21 64.6827 203.741 64.448C203.272 64.2133 202.76 64.096 202.205 64.096C201.373 64.096 200.664 64.3627 200.077 64.896C199.49 65.4293 199.165 66.1813 199.101 67.152H205.245ZM211.598 72.128C210.595 72.128 209.774 71.8987 209.134 71.44C208.505 70.9707 208.153 70.336 208.078 69.536H209.23C209.283 70.0267 209.513 70.4267 209.918 70.736C210.334 71.0347 210.889 71.184 211.582 71.184C212.19 71.184 212.665 71.04 213.006 70.752C213.358 70.464 213.534 70.1067 213.534 69.68C213.534 69.3813 213.438 69.136 213.246 68.944C213.054 68.752 212.809 68.6027 212.51 68.496C212.222 68.3787 211.827 68.256 211.326 68.128C210.675 67.9573 210.147 67.7867 209.742 67.616C209.337 67.4453 208.99 67.1947 208.702 66.864C208.425 66.5227 208.286 66.0693 208.286 65.504C208.286 65.0773 208.414 64.6827 208.67 64.32C208.926 63.9573 209.289 63.6693 209.758 63.456C210.227 63.2427 210.761 63.136 211.358 63.136C212.297 63.136 213.054 63.376 213.63 63.856C214.206 64.3253 214.515 64.976 214.558 65.808H213.438C213.406 65.296 213.203 64.8853 212.83 64.576C212.467 64.256 211.966 64.096 211.326 64.096C210.761 64.096 210.302 64.2293 209.95 64.496C209.598 64.7627 209.422 65.0933 209.422 65.488C209.422 65.8293 209.523 66.112 209.726 66.336C209.939 66.5493 210.201 66.72 210.51 66.848C210.819 66.9653 211.235 67.0987 211.758 67.248C212.387 67.4187 212.889 67.584 213.262 67.744C213.635 67.904 213.955 68.1387 214.222 68.448C214.489 68.7573 214.627 69.168 214.638 69.68C214.638 70.1493 214.51 70.5707 214.254 70.944C213.998 71.3067 213.641 71.5947 213.182 71.808C212.723 72.0213 212.195 72.128 211.598 72.128ZM218.362 64.208V69.632C218.362 70.1653 218.464 70.5333 218.666 70.736C218.869 70.9387 219.226 71.04 219.738 71.04H220.762V72H219.562C218.773 72 218.186 71.8187 217.802 71.456C217.418 71.0827 217.226 70.4747 217.226 69.632V64.208H216.01V63.264H217.226V61.072H218.362V63.264H220.762V64.208H218.362ZM230.673 67.184C230.673 67.568 230.663 67.8613 230.641 68.064H223.393C223.425 68.7253 223.585 69.2907 223.873 69.76C224.161 70.2293 224.54 70.5867 225.009 70.832C225.479 71.0667 225.991 71.184 226.545 71.184C227.271 71.184 227.879 71.008 228.369 70.656C228.871 70.304 229.201 69.8293 229.361 69.232H230.545C230.332 70.0853 229.873 70.784 229.169 71.328C228.476 71.8613 227.601 72.128 226.545 72.128C225.724 72.128 224.988 71.9467 224.337 71.584C223.687 71.2107 223.175 70.688 222.801 70.016C222.439 69.3333 222.257 68.5387 222.257 67.632C222.257 66.7253 222.439 65.9307 222.801 65.248C223.164 64.5653 223.671 64.0427 224.321 63.68C224.972 63.3173 225.713 63.136 226.545 63.136C227.377 63.136 228.103 63.3173 228.721 63.68C229.351 64.0427 229.831 64.5333 230.161 65.152C230.503 65.76 230.673 66.4373 230.673 67.184ZM229.537 67.152C229.548 66.5013 229.415 65.9467 229.137 65.488C228.871 65.0293 228.503 64.6827 228.033 64.448C227.564 64.2133 227.052 64.096 226.497 64.096C225.665 64.096 224.956 64.3627 224.369 64.896C223.783 65.4293 223.457 66.1813 223.393 67.152H229.537ZM227.937 60.688L224.657 62.592V61.728L227.937 59.68V60.688ZM234.339 64.208V69.632C234.339 70.1653 234.44 70.5333 234.643 70.736C234.845 70.9387 235.203 71.04 235.715 71.04H236.739V72H235.539C234.749 72 234.163 71.8187 233.779 71.456C233.395 71.0827 233.203 70.4747 233.203 69.632V64.208H231.987V63.264H233.203V61.072H234.339V63.264H236.739V64.208H234.339ZM239.306 61.616C239.082 61.616 238.89 61.536 238.73 61.376C238.57 61.216 238.49 61.0187 238.49 60.784C238.49 60.5493 238.57 60.3573 238.73 60.208C238.89 60.048 239.082 59.968 239.306 59.968C239.53 59.968 239.722 60.048 239.882 60.208C240.042 60.3573 240.122 60.5493 240.122 60.784C240.122 61.0187 240.042 61.216 239.882 61.376C239.722 61.536 239.53 61.616 239.306 61.616ZM239.866 63.264V72H238.746V63.264H239.866ZM242.05 67.632C242.05 66.7253 242.231 65.936 242.594 65.264C242.957 64.5813 243.458 64.0587 244.098 63.696C244.738 63.3227 245.469 63.136 246.29 63.136C247.367 63.136 248.253 63.4027 248.946 63.936C249.65 64.4693 250.103 65.1947 250.306 66.112H249.106C248.957 65.4827 248.631 64.992 248.13 64.64C247.639 64.2773 247.026 64.096 246.29 64.096C245.703 64.096 245.175 64.2293 244.706 64.496C244.237 64.7627 243.863 65.1627 243.586 65.696C243.319 66.2187 243.186 66.864 243.186 67.632C243.186 68.4 243.319 69.0507 243.586 69.584C243.863 70.1173 244.237 70.5173 244.706 70.784C245.175 71.0507 245.703 71.184 246.29 71.184C247.026 71.184 247.639 71.008 248.13 70.656C248.631 70.2933 248.957 69.792 249.106 69.152H250.306C250.103 70.048 249.65 70.768 248.946 71.312C248.242 71.856 247.357 72.128 246.29 72.128C245.469 72.128 244.738 71.9467 244.098 71.584C243.458 71.2107 242.957 70.688 242.594 70.016C242.231 69.3333 242.05 68.5387 242.05 67.632ZM252.022 67.616C252.022 66.72 252.198 65.936 252.55 65.264C252.913 64.5813 253.409 64.0587 254.038 63.696C254.678 63.3227 255.398 63.136 256.198 63.136C257.03 63.136 257.745 63.328 258.342 63.712C258.95 64.096 259.388 64.5867 259.654 65.184V63.264H260.774V72H259.654V70.064C259.377 70.6613 258.934 71.1573 258.326 71.552C257.729 71.936 257.014 72.128 256.182 72.128C255.393 72.128 254.678 71.9413 254.038 71.568C253.409 71.1947 252.913 70.6667 252.55 69.984C252.198 69.3013 252.022 68.512 252.022 67.616ZM259.654 67.632C259.654 66.928 259.51 66.3093 259.222 65.776C258.934 65.2427 258.54 64.832 258.038 64.544C257.548 64.256 257.004 64.112 256.406 64.112C255.788 64.112 255.233 64.2507 254.742 64.528C254.252 64.8053 253.862 65.2107 253.574 65.744C253.297 66.2667 253.158 66.8907 253.158 67.616C253.158 68.3307 253.297 68.96 253.574 69.504C253.862 70.0373 254.252 70.448 254.742 70.736C255.233 71.0133 255.788 71.152 256.406 71.152C257.004 71.152 257.548 71.008 258.038 70.72C258.54 70.432 258.934 70.0213 259.222 69.488C259.51 68.9547 259.654 68.336 259.654 67.632Z" fill="white"/>
</svg>
